{
	"patcher" : 	{
		"fileversion" : 1,
		"rect" : [ 22.0, 45.0, 1331.0, 668.0 ],
		"bglocked" : 0,
		"defrect" : [ 22.0, 45.0, 1331.0, 668.0 ],
		"openrect" : [ 0.0, 0.0, 0.0, 0.0 ],
		"openinpresentation" : 0,
		"default_fontsize" : 12.0,
		"default_fontface" : 0,
		"default_fontname" : "Arial",
		"gridonopen" : 0,
		"gridsize" : [ 15.0, 15.0 ],
		"gridsnaponopen" : 0,
		"toolbarvisible" : 1,
		"boxanimatetime" : 200,
		"imprint" : 0,
		"enablehscroll" : 1,
		"enablevscroll" : 1,
		"devicewidth" : 0.0,
		"boxes" : [ 			{
				"box" : 				{
					"maxclass" : "newobj",
					"varname" : "u785000688",
					"text" : "autopattr",
					"fontsize" : 12.0,
					"numinlets" : 1,
					"patching_rect" : [ 952.599915, 292.599976, 59.5, 20.0 ],
					"numoutlets" : 4,
					"id" : "obj-32",
					"fontname" : "Arial",
					"outlettype" : [ "", "", "", "" ],
					"restore" : 					{
						"highass" : [ 1.0 ],
						"lowpass" : [ 20.0 ]
					}

				}

			}
, 			{
				"box" : 				{
					"maxclass" : "newobj",
					"text" : "route /acceleration/id/x/y/z",
					"fontsize" : 12.0,
					"numinlets" : 1,
					"patching_rect" : [ 622.299988, 388.899994, 287.0, 20.0 ],
					"numoutlets" : 2,
					"id" : "obj-31",
					"fontname" : "Arial",
					"outlettype" : [ "", "" ]
				}

			}
, 			{
				"box" : 				{
					"maxclass" : "button",
					"numinlets" : 1,
					"patching_rect" : [ 574.991943, 266.793976, 20.0, 20.0 ],
					"numoutlets" : 1,
					"id" : "obj-10",
					"outlettype" : [ "bang" ]
				}

			}
, 			{
				"box" : 				{
					"maxclass" : "newobj",
					"text" : "mxj NetScan",
					"fontsize" : 12.0,
					"numinlets" : 1,
					"patching_rect" : [ 572.329956, 298.737976, 79.0, 20.0 ],
					"numoutlets" : 2,
					"id" : "obj-3",
					"fontname" : "Arial",
					"outlettype" : [ "", "" ]
				}

			}
, 			{
				"box" : 				{
					"maxclass" : "comment",
					"text" : "highpass",
					"fontsize" : 12.0,
					"presentation_rect" : [ 238.0, 59.0, 57.0, 20.0 ],
					"numinlets" : 1,
					"patching_rect" : [ 1223.0, 329.0, 150.0, 20.0 ],
					"presentation" : 1,
					"numoutlets" : 0,
					"id" : "obj-73",
					"fontname" : "Arial"
				}

			}
, 			{
				"box" : 				{
					"maxclass" : "comment",
					"text" : "lowpass",
					"fontsize" : 12.0,
					"presentation_rect" : [ 237.0, 33.0, 57.0, 20.0 ],
					"numinlets" : 1,
					"patching_rect" : [ 1280.0, 361.0, 150.0, 20.0 ],
					"presentation" : 1,
					"numoutlets" : 0,
					"id" : "obj-72",
					"fontname" : "Arial"
				}

			}
, 			{
				"box" : 				{
					"maxclass" : "flonum",
					"varname" : "lowpass",
					"minimum" : 0.0,
					"fontsize" : 12.0,
					"maximum" : 20000.0,
					"presentation_rect" : [ 295.0, 35.0, 50.0, 20.0 ],
					"numinlets" : 1,
					"patching_rect" : [ 1227.0, 363.0, 50.0, 20.0 ],
					"presentation" : 1,
					"numoutlets" : 2,
					"id" : "obj-71",
					"fontname" : "Arial",
					"outlettype" : [ "float", "bang" ]
				}

			}
, 			{
				"box" : 				{
					"maxclass" : "flonum",
					"varname" : "highass",
					"minimum" : 0.0,
					"fontsize" : 12.0,
					"maximum" : 40.0,
					"presentation_rect" : [ 295.0, 58.0, 50.0, 20.0 ],
					"numinlets" : 1,
					"patching_rect" : [ 1169.0, 328.0, 50.0, 20.0 ],
					"presentation" : 1,
					"numoutlets" : 2,
					"id" : "obj-70",
					"fontname" : "Arial",
					"outlettype" : [ "float", "bang" ]
				}

			}
, 			{
				"box" : 				{
					"maxclass" : "message",
					"text" : "fc $1",
					"fontsize" : 12.0,
					"numinlets" : 2,
					"patching_rect" : [ 1227.0, 390.0, 37.0, 18.0 ],
					"numoutlets" : 1,
					"id" : "obj-69",
					"fontname" : "Arial",
					"outlettype" : [ "" ]
				}

			}
, 			{
				"box" : 				{
					"maxclass" : "message",
					"text" : "fb $1",
					"fontsize" : 12.0,
					"numinlets" : 2,
					"patching_rect" : [ 1169.0, 357.0, 37.0, 18.0 ],
					"numoutlets" : 1,
					"id" : "obj-56",
					"fontname" : "Arial",
					"outlettype" : [ "" ]
				}

			}
, 			{
				"box" : 				{
					"maxclass" : "newobj",
					"text" : "sig~",
					"fontsize" : 12.0,
					"numinlets" : 1,
					"patching_rect" : [ 1148.0, 482.0, 33.0, 20.0 ],
					"numoutlets" : 1,
					"id" : "obj-55",
					"fontname" : "Arial",
					"outlettype" : [ "signal" ]
				}

			}
, 			{
				"box" : 				{
					"maxclass" : "newobj",
					"text" : "sig~",
					"fontsize" : 12.0,
					"numinlets" : 1,
					"patching_rect" : [ 1110.0, 482.0, 33.0, 20.0 ],
					"numoutlets" : 1,
					"id" : "obj-49",
					"fontname" : "Arial",
					"outlettype" : [ "signal" ]
				}

			}
, 			{
				"box" : 				{
					"maxclass" : "newobj",
					"text" : "sig~",
					"fontsize" : 12.0,
					"numinlets" : 1,
					"patching_rect" : [ 1073.0, 482.0, 33.0, 20.0 ],
					"numoutlets" : 1,
					"id" : "obj-47",
					"fontname" : "Arial",
					"outlettype" : [ "signal" ]
				}

			}
, 			{
				"box" : 				{
					"maxclass" : "newobj",
					"text" : "fst.3Dpow~",
					"fontsize" : 12.0,
					"numinlets" : 3,
					"patching_rect" : [ 1080.0, 523.0, 71.0, 20.0 ],
					"numoutlets" : 1,
					"id" : "obj-40",
					"fontname" : "Arial",
					"outlettype" : [ "signal" ]
				}

			}
, 			{
				"box" : 				{
					"maxclass" : "ezdac~",
					"varname" : "autohelp_dac[4]",
					"presentation_rect" : [ 331.0, 160.0, 33.0, 33.0 ],
					"numinlets" : 2,
					"patching_rect" : [ 1133.0, 693.0, 33.0, 33.0 ],
					"presentation" : 1,
					"numoutlets" : 0,
					"id" : "obj-60",
					"local" : 1
				}

			}
, 			{
				"box" : 				{
					"maxclass" : "ezdac~",
					"varname" : "autohelp_dac[3]",
					"presentation_rect" : [ 267.0, 160.0, 33.0, 33.0 ],
					"numinlets" : 2,
					"patching_rect" : [ 1069.0, 693.0, 33.0, 33.0 ],
					"presentation" : 1,
					"numoutlets" : 0,
					"id" : "obj-59",
					"local" : 1
				}

			}
, 			{
				"box" : 				{
					"maxclass" : "ezdac~",
					"varname" : "autohelp_dac[2]",
					"presentation_rect" : [ 205.0, 160.0, 33.0, 33.0 ],
					"numinlets" : 2,
					"patching_rect" : [ 1007.0, 693.0, 33.0, 33.0 ],
					"presentation" : 1,
					"numoutlets" : 0,
					"id" : "obj-46",
					"local" : 1
				}

			}
, 			{
				"box" : 				{
					"maxclass" : "message",
					"text" : "0",
					"fontsize" : 9.291973,
					"numinlets" : 2,
					"patching_rect" : [ 1167.0, 670.384583, 16.5, 15.0 ],
					"numoutlets" : 1,
					"id" : "obj-48",
					"fontname" : "Arial",
					"outlettype" : [ "" ]
				}

			}
, 			{
				"box" : 				{
					"maxclass" : "message",
					"text" : "127",
					"fontsize" : 9.96341,
					"numinlets" : 2,
					"patching_rect" : [ 1167.0, 630.83075, 26.5, 16.0 ],
					"numoutlets" : 1,
					"id" : "obj-57",
					"fontname" : "Arial",
					"outlettype" : [ "" ]
				}

			}
, 			{
				"box" : 				{
					"maxclass" : "message",
					"text" : "0",
					"fontsize" : 9.291973,
					"presentation_rect" : [ 300.0, 136.384583, 16.5, 15.0 ],
					"numinlets" : 2,
					"patching_rect" : [ 1102.0, 669.384583, 16.5, 15.0 ],
					"presentation" : 1,
					"numoutlets" : 1,
					"id" : "obj-11",
					"fontname" : "Arial",
					"outlettype" : [ "" ]
				}

			}
, 			{
				"box" : 				{
					"maxclass" : "message",
					"text" : "127",
					"fontsize" : 9.96341,
					"presentation_rect" : [ 300.0, 96.83075, 26.5, 16.0 ],
					"numinlets" : 2,
					"patching_rect" : [ 1102.0, 629.83075, 26.5, 16.0 ],
					"presentation" : 1,
					"numoutlets" : 1,
					"id" : "obj-58",
					"fontname" : "Arial",
					"outlettype" : [ "" ]
				}

			}
, 			{
				"box" : 				{
					"maxclass" : "message",
					"text" : "0",
					"fontsize" : 9.291973,
					"presentation_rect" : [ 235.0, 136.384583, 16.5, 15.0 ],
					"numinlets" : 2,
					"patching_rect" : [ 1037.0, 669.384583, 16.5, 15.0 ],
					"presentation" : 1,
					"numoutlets" : 1,
					"id" : "obj-61",
					"fontname" : "Arial",
					"outlettype" : [ "" ]
				}

			}
, 			{
				"box" : 				{
					"maxclass" : "message",
					"text" : "127",
					"fontsize" : 9.96341,
					"presentation_rect" : [ 235.0, 96.83075, 26.5, 16.0 ],
					"numinlets" : 2,
					"patching_rect" : [ 1037.0, 629.83075, 26.5, 16.0 ],
					"presentation" : 1,
					"numoutlets" : 1,
					"id" : "obj-62",
					"fontname" : "Arial",
					"outlettype" : [ "" ]
				}

			}
, 			{
				"box" : 				{
					"maxclass" : "gain~",
					"presentation_rect" : [ 336.0, 95.0, 25.0, 60.0 ],
					"numinlets" : 2,
					"patching_rect" : [ 1138.0, 628.0, 25.0, 60.0 ],
					"presentation" : 1,
					"numoutlets" : 2,
					"id" : "obj-85",
					"outlettype" : [ "signal", "int" ]
				}

			}
, 			{
				"box" : 				{
					"maxclass" : "newobj",
					"text" : "*~",
					"fontsize" : 12.0,
					"numinlets" : 2,
					"patching_rect" : [ 1138.0, 601.0, 35.0, 20.0 ],
					"numoutlets" : 1,
					"id" : "obj-82",
					"fontname" : "Arial",
					"outlettype" : [ "signal" ]
				}

			}
, 			{
				"box" : 				{
					"maxclass" : "newobj",
					"text" : "cycle~ 100",
					"fontsize" : 12.0,
					"numinlets" : 2,
					"patching_rect" : [ 1138.0, 560.0, 68.0, 20.0 ],
					"numoutlets" : 1,
					"id" : "obj-83",
					"fontname" : "Arial",
					"outlettype" : [ "signal" ]
				}

			}
, 			{
				"box" : 				{
					"maxclass" : "gain~",
					"presentation_rect" : [ 272.0, 95.0, 25.0, 60.0 ],
					"numinlets" : 2,
					"patching_rect" : [ 1074.0, 628.0, 25.0, 60.0 ],
					"presentation" : 1,
					"numoutlets" : 2,
					"id" : "obj-80",
					"outlettype" : [ "signal", "int" ]
				}

			}
, 			{
				"box" : 				{
					"maxclass" : "newobj",
					"text" : "*~",
					"fontsize" : 12.0,
					"numinlets" : 2,
					"patching_rect" : [ 1011.0, 592.0, 35.0, 20.0 ],
					"numoutlets" : 1,
					"id" : "obj-63",
					"fontname" : "Arial",
					"outlettype" : [ "signal" ]
				}

			}
, 			{
				"box" : 				{
					"maxclass" : "newobj",
					"text" : "noise~",
					"fontsize" : 12.0,
					"numinlets" : 1,
					"patching_rect" : [ 1010.0, 565.0, 46.0, 20.0 ],
					"numoutlets" : 1,
					"id" : "obj-64",
					"fontname" : "Arial",
					"outlettype" : [ "signal" ]
				}

			}
, 			{
				"box" : 				{
					"maxclass" : "gain~",
					"presentation_rect" : [ 209.0, 95.0, 25.0, 60.0 ],
					"numinlets" : 2,
					"patching_rect" : [ 1011.0, 628.0, 25.0, 60.0 ],
					"presentation" : 1,
					"numoutlets" : 2,
					"id" : "obj-65",
					"outlettype" : [ "signal", "int" ]
				}

			}
, 			{
				"box" : 				{
					"maxclass" : "newobj",
					"text" : "p sweep",
					"fontsize" : 9.0,
					"numinlets" : 1,
					"patching_rect" : [ 1074.0, 600.0, 46.0, 17.0 ],
					"numoutlets" : 1,
					"id" : "obj-207",
					"fontname" : "Arial",
					"outlettype" : [ "signal" ],
					"patcher" : 					{
						"fileversion" : 1,
						"rect" : [ 0.0, 513.0, 258.0, 245.0 ],
						"bglocked" : 0,
						"defrect" : [ 0.0, 513.0, 258.0, 245.0 ],
						"openrect" : [ 0.0, 0.0, 0.0, 0.0 ],
						"openinpresentation" : 0,
						"default_fontsize" : 12.0,
						"default_fontface" : 0,
						"default_fontname" : "Arial",
						"gridonopen" : 0,
						"gridsize" : [ 15.0, 15.0 ],
						"gridsnaponopen" : 0,
						"toolbarvisible" : 1,
						"boxanimatetime" : 200,
						"imprint" : 0,
						"enablehscroll" : 1,
						"enablevscroll" : 1,
						"devicewidth" : 0.0,
						"boxes" : [ 							{
								"box" : 								{
									"maxclass" : "newobj",
									"text" : "fst.xsmooth~",
									"fontsize" : 9.0,
									"numinlets" : 2,
									"patching_rect" : [ 64.0, 155.0, 96.0, 17.0 ],
									"numoutlets" : 1,
									"id" : "obj-8",
									"fontname" : "Arial",
									"outlettype" : [ "signal" ]
								}

							}
, 							{
								"box" : 								{
									"maxclass" : "newobj",
									"text" : "sig~ 0.1",
									"fontsize" : 9.32196,
									"numinlets" : 1,
									"patching_rect" : [ 64.0, 39.47715, 46.0, 17.0 ],
									"numoutlets" : 1,
									"id" : "obj-5",
									"fontname" : "Arial",
									"outlettype" : [ "signal" ]
								}

							}
, 							{
								"box" : 								{
									"maxclass" : "outlet",
									"numinlets" : 1,
									"patching_rect" : [ 64.0, 191.0, 15.0, 15.0 ],
									"numoutlets" : 0,
									"id" : "obj-1",
									"comment" : ""
								}

							}
, 							{
								"box" : 								{
									"maxclass" : "inlet",
									"numinlets" : 0,
									"patching_rect" : [ 141.0, 17.0, 15.0, 15.0 ],
									"numoutlets" : 1,
									"id" : "obj-2",
									"outlettype" : [ "signal" ],
									"comment" : ""
								}

							}
, 							{
								"box" : 								{
									"maxclass" : "newobj",
									"text" : "*~ 1000.",
									"fontsize" : 9.0,
									"numinlets" : 2,
									"patching_rect" : [ 90.0, 63.0, 53.0, 17.0 ],
									"numoutlets" : 1,
									"id" : "obj-3",
									"fontname" : "Arial",
									"outlettype" : [ "signal" ]
								}

							}
, 							{
								"box" : 								{
									"maxclass" : "newobj",
									"text" : "+~ 150.",
									"fontsize" : 9.0,
									"numinlets" : 2,
									"patching_rect" : [ 90.0, 84.0, 46.0, 17.0 ],
									"numoutlets" : 1,
									"id" : "obj-4",
									"fontname" : "Arial",
									"outlettype" : [ "signal" ]
								}

							}
, 							{
								"box" : 								{
									"maxclass" : "newobj",
									"text" : "fst.les~",
									"fontsize" : 9.0,
									"numinlets" : 2,
									"patching_rect" : [ 64.0, 107.0, 45.0, 17.0 ],
									"numoutlets" : 1,
									"id" : "obj-6",
									"fontname" : "Arial",
									"outlettype" : [ "signal" ]
								}

							}
, 							{
								"box" : 								{
									"maxclass" : "newobj",
									"text" : "cycle~ 350",
									"fontsize" : 9.0,
									"numinlets" : 2,
									"patching_rect" : [ 64.0, 129.0, 61.0, 17.0 ],
									"numoutlets" : 1,
									"id" : "obj-7",
									"fontname" : "Arial",
									"outlettype" : [ "signal" ]
								}

							}
 ],
						"lines" : [ 							{
								"patchline" : 								{
									"source" : [ "obj-8", 0 ],
									"destination" : [ "obj-1", 0 ],
									"hidden" : 0,
									"midpoints" : [  ]
								}

							}
, 							{
								"patchline" : 								{
									"source" : [ "obj-7", 0 ],
									"destination" : [ "obj-8", 0 ],
									"hidden" : 0,
									"midpoints" : [  ]
								}

							}
, 							{
								"patchline" : 								{
									"source" : [ "obj-6", 0 ],
									"destination" : [ "obj-7", 0 ],
									"hidden" : 0,
									"midpoints" : [  ]
								}

							}
, 							{
								"patchline" : 								{
									"source" : [ "obj-5", 0 ],
									"destination" : [ "obj-6", 0 ],
									"hidden" : 0,
									"midpoints" : [  ]
								}

							}
, 							{
								"patchline" : 								{
									"source" : [ "obj-4", 0 ],
									"destination" : [ "obj-6", 1 ],
									"hidden" : 0,
									"midpoints" : [  ]
								}

							}
, 							{
								"patchline" : 								{
									"source" : [ "obj-3", 0 ],
									"destination" : [ "obj-4", 0 ],
									"hidden" : 0,
									"midpoints" : [  ]
								}

							}
, 							{
								"patchline" : 								{
									"source" : [ "obj-2", 0 ],
									"destination" : [ "obj-8", 1 ],
									"hidden" : 0,
									"midpoints" : [  ]
								}

							}
, 							{
								"patchline" : 								{
									"source" : [ "obj-2", 0 ],
									"destination" : [ "obj-3", 0 ],
									"hidden" : 0,
									"midpoints" : [  ]
								}

							}
 ]
					}
,
					"saved_object_attributes" : 					{
						"globalpatchername" : "",
						"fontface" : 0,
						"fontsize" : 12.0,
						"default_fontface" : 0,
						"default_fontname" : "Arial",
						"fontname" : "Arial",
						"default_fontsize" : 12.0
					}

				}

			}
, 			{
				"box" : 				{
					"maxclass" : "number",
					"fontsize" : 12.0,
					"presentation_rect" : [ 50.0, 269.0, 50.0, 20.0 ],
					"numinlets" : 1,
					"patching_rect" : [ 490.0, 381.0, 50.0, 20.0 ],
					"presentation" : 1,
					"numoutlets" : 2,
					"id" : "obj-39",
					"fontname" : "Arial",
					"outlettype" : [ "int", "bang" ]
				}

			}
, 			{
				"box" : 				{
					"maxclass" : "multislider",
					"presentation_rect" : [ 24.0, 314.0, 819.0, 122.0 ],
					"setstyle" : 5,
					"numinlets" : 1,
					"setminmax" : [ 0.0, 300.0 ],
					"patching_rect" : [ 354.800018, 617.900024, 412.0, 90.0 ],
					"presentation" : 1,
					"numoutlets" : 2,
					"id" : "obj-38",
					"outlettype" : [ "", "" ]
				}

			}
, 			{
				"box" : 				{
					"maxclass" : "newobj",
					"text" : "i",
					"fontsize" : 12.0,
					"numinlets" : 2,
					"patching_rect" : [ 451.0, 534.0, 32.5, 20.0 ],
					"numoutlets" : 1,
					"id" : "obj-36",
					"fontname" : "Arial",
					"outlettype" : [ "int" ]
				}

			}
, 			{
				"box" : 				{
					"maxclass" : "number",
					"fontsize" : 12.0,
					"presentation_rect" : [ 50.0, 292.0, 50.0, 20.0 ],
					"numinlets" : 1,
					"patching_rect" : [ 465.0, 510.0, 50.0, 20.0 ],
					"presentation" : 1,
					"numoutlets" : 2,
					"id" : "obj-30",
					"fontname" : "Arial",
					"outlettype" : [ "int", "bang" ]
				}

			}
, 			{
				"box" : 				{
					"maxclass" : "toggle",
					"presentation_rect" : [ 26.0, 270.0, 20.0, 20.0 ],
					"numinlets" : 1,
					"patching_rect" : [ 451.0, 380.0, 20.0, 20.0 ],
					"presentation" : 1,
					"numoutlets" : 1,
					"id" : "obj-25",
					"outlettype" : [ "int" ]
				}

			}
, 			{
				"box" : 				{
					"maxclass" : "newobj",
					"text" : "metro 20",
					"fontsize" : 12.0,
					"numinlets" : 2,
					"patching_rect" : [ 451.0, 408.0, 58.0, 20.0 ],
					"numoutlets" : 1,
					"id" : "obj-20",
					"fontname" : "Arial",
					"outlettype" : [ "bang" ]
				}

			}
, 			{
				"box" : 				{
					"maxclass" : "newobj",
					"text" : "t b",
					"fontsize" : 12.0,
					"numinlets" : 1,
					"patching_rect" : [ 465.0, 454.0, 24.0, 20.0 ],
					"numoutlets" : 1,
					"id" : "obj-16",
					"fontname" : "Arial",
					"outlettype" : [ "bang" ]
				}

			}
, 			{
				"box" : 				{
					"maxclass" : "newobj",
					"text" : "timer",
					"fontsize" : 12.0,
					"numinlets" : 2,
					"patching_rect" : [ 465.0, 483.0, 37.0, 20.0 ],
					"numoutlets" : 2,
					"id" : "obj-12",
					"fontname" : "Arial",
					"outlettype" : [ "float", "" ]
				}

			}
, 			{
				"box" : 				{
					"maxclass" : "newobj",
					"text" : "+ 10.",
					"fontsize" : 12.0,
					"numinlets" : 2,
					"patching_rect" : [ 919.222473, 543.830139, 38.0, 20.0 ],
					"numoutlets" : 1,
					"id" : "obj-23",
					"fontname" : "Arial",
					"outlettype" : [ "float" ]
				}

			}
, 			{
				"box" : 				{
					"maxclass" : "comment",
					"text" : "<- Ckick to print osc messages",
					"fontsize" : 12.0,
					"numinlets" : 1,
					"patching_rect" : [ 605.0, 338.0, 220.0, 20.0 ],
					"numoutlets" : 0,
					"id" : "obj-52",
					"fontname" : "Arial"
				}

			}
, 			{
				"box" : 				{
					"maxclass" : "newobj",
					"text" : "* 10.",
					"fontsize" : 12.0,
					"numinlets" : 2,
					"patching_rect" : [ 919.222473, 582.830139, 35.0, 20.0 ],
					"numoutlets" : 1,
					"id" : "obj-45",
					"fontname" : "Arial",
					"outlettype" : [ "float" ]
				}

			}
, 			{
				"box" : 				{
					"maxclass" : "newobj",
					"text" : "* 10.",
					"fontsize" : 12.0,
					"numinlets" : 2,
					"patching_rect" : [ 780.222473, 581.830139, 35.0, 20.0 ],
					"numoutlets" : 1,
					"id" : "obj-44",
					"fontname" : "Arial",
					"outlettype" : [ "float" ]
				}

			}
, 			{
				"box" : 				{
					"maxclass" : "newobj",
					"text" : "* 10.",
					"fontsize" : 12.0,
					"numinlets" : 2,
					"patching_rect" : [ 862.222473, 581.830139, 35.0, 20.0 ],
					"numoutlets" : 1,
					"id" : "obj-42",
					"fontname" : "Arial",
					"outlettype" : [ "float" ]
				}

			}
, 			{
				"box" : 				{
					"maxclass" : "slider",
					"size" : 200.0,
					"presentation_rect" : [ 127.0, 93.0, 20.0, 100.0 ],
					"knobcolor" : [ 0.958267, 0.784472, 0.0, 1.0 ],
					"numinlets" : 1,
					"patching_rect" : [ 919.222473, 612.330139, 21.0, 100.0 ],
					"presentation" : 1,
					"numoutlets" : 1,
					"bgcolor" : [ 0.458267, 0.458267, 0.458267, 1.0 ],
					"id" : "obj-41",
					"outlettype" : [ "" ],
					"bordercolor" : [ 0.111328, 0.111328, 0.111328, 1.0 ]
				}

			}
, 			{
				"box" : 				{
					"maxclass" : "pictslider",
					"bottomvalue" : -100,
					"rightvalue" : 100,
					"bottommargin" : 4,
					"topmargin" : 4,
					"presentation_rect" : [ 21.0, 93.0, 100.0, 100.0 ],
					"leftvalue" : -100,
					"topvalue" : 100,
					"leftmargin" : 4,
					"numinlets" : 2,
					"patching_rect" : [ 781.222473, 610.330139, 100.0, 100.0 ],
					"presentation" : 1,
					"numoutlets" : 2,
					"id" : "obj-2",
					"bkgndsize" : 1,
					"rightmargin" : 4,
					"outlettype" : [ "int", "int" ]
				}

			}
, 			{
				"box" : 				{
					"maxclass" : "newobj",
					"text" : "* 10.",
					"fontsize" : 12.0,
					"numinlets" : 2,
					"patching_rect" : [ 898.222473, 481.830139, 35.0, 20.0 ],
					"numoutlets" : 1,
					"id" : "obj-19",
					"fontname" : "Arial",
					"outlettype" : [ "float" ]
				}

			}
, 			{
				"box" : 				{
					"maxclass" : "newobj",
					"text" : "* 10.",
					"fontsize" : 12.0,
					"numinlets" : 2,
					"patching_rect" : [ 773.222473, 481.830139, 35.0, 20.0 ],
					"numoutlets" : 1,
					"id" : "obj-14",
					"fontname" : "Arial",
					"outlettype" : [ "float" ]
				}

			}
, 			{
				"box" : 				{
					"maxclass" : "newobj",
					"text" : "* 10.",
					"fontsize" : 12.0,
					"numinlets" : 2,
					"patching_rect" : [ 648.222473, 481.830139, 35.0, 20.0 ],
					"numoutlets" : 1,
					"id" : "obj-13",
					"fontname" : "Arial",
					"outlettype" : [ "float" ]
				}

			}
, 			{
				"box" : 				{
					"maxclass" : "flonum",
					"fontsize" : 12.0,
					"numinlets" : 1,
					"patching_rect" : [ 898.222473, 449.830139, 50.0, 20.0 ],
					"numoutlets" : 2,
					"id" : "obj-28",
					"fontname" : "Arial",
					"outlettype" : [ "float", "bang" ]
				}

			}
, 			{
				"box" : 				{
					"maxclass" : "flonum",
					"fontsize" : 12.0,
					"numinlets" : 1,
					"patching_rect" : [ 773.222473, 449.830139, 50.0, 20.0 ],
					"numoutlets" : 2,
					"id" : "obj-27",
					"fontname" : "Arial",
					"outlettype" : [ "float", "bang" ]
				}

			}
, 			{
				"box" : 				{
					"maxclass" : "flonum",
					"fontsize" : 12.0,
					"numinlets" : 1,
					"patching_rect" : [ 648.222473, 449.830139, 50.0, 20.0 ],
					"numoutlets" : 2,
					"id" : "obj-26",
					"fontname" : "Arial",
					"outlettype" : [ "float", "bang" ]
				}

			}
, 			{
				"box" : 				{
					"maxclass" : "newobj",
					"text" : "unpack s 0. 0. 0.",
					"fontsize" : 12.0,
					"numinlets" : 1,
					"patching_rect" : [ 625.0, 415.0, 225.0, 20.0 ],
					"numoutlets" : 4,
					"id" : "obj-5",
					"fontname" : "Arial",
					"outlettype" : [ "", "float", "float", "float" ]
				}

			}
, 			{
				"box" : 				{
					"maxclass" : "newobj",
					"text" : "print",
					"fontsize" : 12.0,
					"numinlets" : 1,
					"patching_rect" : [ 582.0, 445.0, 34.0, 20.0 ],
					"numoutlets" : 0,
					"id" : "obj-4",
					"fontname" : "Arial"
				}

			}
, 			{
				"box" : 				{
					"maxclass" : "toggle",
					"numinlets" : 1,
					"patching_rect" : [ 582.0, 337.0, 20.0, 20.0 ],
					"numoutlets" : 1,
					"id" : "obj-6",
					"outlettype" : [ "int" ]
				}

			}
, 			{
				"box" : 				{
					"maxclass" : "newobj",
					"text" : "gate",
					"fontsize" : 12.0,
					"numinlets" : 2,
					"patching_rect" : [ 582.0, 417.0, 34.0, 20.0 ],
					"numoutlets" : 1,
					"id" : "obj-7",
					"fontname" : "Arial",
					"outlettype" : [ "" ]
				}

			}
, 			{
				"box" : 				{
					"maxclass" : "newobj",
					"text" : "udpreceive 58901",
					"fontsize" : 12.0,
					"numinlets" : 1,
					"patching_rect" : [ 625.0, 360.799988, 106.0, 20.0 ],
					"numoutlets" : 1,
					"id" : "obj-1",
					"fontname" : "Arial",
					"outlettype" : [ "" ]
				}

			}
 ],
		"lines" : [ 			{
				"patchline" : 				{
					"source" : [ "obj-5", 2 ],
					"destination" : [ "obj-49", 0 ],
					"hidden" : 0,
					"midpoints" : [  ]
				}

			}
, 			{
				"patchline" : 				{
					"source" : [ "obj-5", 3 ],
					"destination" : [ "obj-55", 0 ],
					"hidden" : 0,
					"midpoints" : [  ]
				}

			}
, 			{
				"patchline" : 				{
					"source" : [ "obj-5", 3 ],
					"destination" : [ "obj-28", 0 ],
					"hidden" : 0,
					"midpoints" : [  ]
				}

			}
, 			{
				"patchline" : 				{
					"source" : [ "obj-5", 2 ],
					"destination" : [ "obj-27", 0 ],
					"hidden" : 0,
					"midpoints" : [  ]
				}

			}
, 			{
				"patchline" : 				{
					"source" : [ "obj-5", 1 ],
					"destination" : [ "obj-26", 0 ],
					"hidden" : 0,
					"midpoints" : [  ]
				}

			}
, 			{
				"patchline" : 				{
					"source" : [ "obj-31", 0 ],
					"destination" : [ "obj-5", 0 ],
					"hidden" : 0,
					"midpoints" : [  ]
				}

			}
, 			{
				"patchline" : 				{
					"source" : [ "obj-5", 1 ],
					"destination" : [ "obj-47", 0 ],
					"hidden" : 0,
					"midpoints" : [  ]
				}

			}
, 			{
				"patchline" : 				{
					"source" : [ "obj-10", 0 ],
					"destination" : [ "obj-3", 0 ],
					"hidden" : 0,
					"midpoints" : [  ]
				}

			}
, 			{
				"patchline" : 				{
					"source" : [ "obj-85", 0 ],
					"destination" : [ "obj-60", 0 ],
					"hidden" : 0,
					"midpoints" : [  ]
				}

			}
, 			{
				"patchline" : 				{
					"source" : [ "obj-85", 0 ],
					"destination" : [ "obj-60", 1 ],
					"hidden" : 0,
					"midpoints" : [  ]
				}

			}
, 			{
				"patchline" : 				{
					"source" : [ "obj-83", 0 ],
					"destination" : [ "obj-82", 0 ],
					"hidden" : 0,
					"midpoints" : [  ]
				}

			}
, 			{
				"patchline" : 				{
					"source" : [ "obj-82", 0 ],
					"destination" : [ "obj-85", 0 ],
					"hidden" : 0,
					"midpoints" : [  ]
				}

			}
, 			{
				"patchline" : 				{
					"source" : [ "obj-80", 0 ],
					"destination" : [ "obj-59", 0 ],
					"hidden" : 0,
					"midpoints" : [  ]
				}

			}
, 			{
				"patchline" : 				{
					"source" : [ "obj-80", 0 ],
					"destination" : [ "obj-59", 1 ],
					"hidden" : 0,
					"midpoints" : [  ]
				}

			}
, 			{
				"patchline" : 				{
					"source" : [ "obj-63", 0 ],
					"destination" : [ "obj-65", 0 ],
					"hidden" : 0,
					"midpoints" : [  ]
				}

			}
, 			{
				"patchline" : 				{
					"source" : [ "obj-64", 0 ],
					"destination" : [ "obj-63", 0 ],
					"hidden" : 0,
					"midpoints" : [  ]
				}

			}
, 			{
				"patchline" : 				{
					"source" : [ "obj-57", 0 ],
					"destination" : [ "obj-85", 0 ],
					"hidden" : 1,
					"midpoints" : [  ]
				}

			}
, 			{
				"patchline" : 				{
					"source" : [ "obj-65", 0 ],
					"destination" : [ "obj-46", 0 ],
					"hidden" : 0,
					"midpoints" : [  ]
				}

			}
, 			{
				"patchline" : 				{
					"source" : [ "obj-65", 0 ],
					"destination" : [ "obj-46", 1 ],
					"hidden" : 0,
					"midpoints" : [  ]
				}

			}
, 			{
				"patchline" : 				{
					"source" : [ "obj-48", 0 ],
					"destination" : [ "obj-85", 0 ],
					"hidden" : 1,
					"midpoints" : [  ]
				}

			}
, 			{
				"patchline" : 				{
					"source" : [ "obj-58", 0 ],
					"destination" : [ "obj-80", 0 ],
					"hidden" : 1,
					"midpoints" : [  ]
				}

			}
, 			{
				"patchline" : 				{
					"source" : [ "obj-11", 0 ],
					"destination" : [ "obj-80", 0 ],
					"hidden" : 1,
					"midpoints" : [  ]
				}

			}
, 			{
				"patchline" : 				{
					"source" : [ "obj-61", 0 ],
					"destination" : [ "obj-65", 0 ],
					"hidden" : 1,
					"midpoints" : [  ]
				}

			}
, 			{
				"patchline" : 				{
					"source" : [ "obj-62", 0 ],
					"destination" : [ "obj-65", 0 ],
					"hidden" : 1,
					"midpoints" : [  ]
				}

			}
, 			{
				"patchline" : 				{
					"source" : [ "obj-207", 0 ],
					"destination" : [ "obj-80", 0 ],
					"hidden" : 0,
					"midpoints" : [  ]
				}

			}
, 			{
				"patchline" : 				{
					"source" : [ "obj-36", 0 ],
					"destination" : [ "obj-38", 0 ],
					"hidden" : 0,
					"midpoints" : [  ]
				}

			}
, 			{
				"patchline" : 				{
					"source" : [ "obj-39", 0 ],
					"destination" : [ "obj-20", 1 ],
					"hidden" : 0,
					"midpoints" : [  ]
				}

			}
, 			{
				"patchline" : 				{
					"source" : [ "obj-30", 0 ],
					"destination" : [ "obj-36", 1 ],
					"hidden" : 0,
					"midpoints" : [  ]
				}

			}
, 			{
				"patchline" : 				{
					"source" : [ "obj-20", 0 ],
					"destination" : [ "obj-36", 0 ],
					"hidden" : 0,
					"midpoints" : [  ]
				}

			}
, 			{
				"patchline" : 				{
					"source" : [ "obj-12", 0 ],
					"destination" : [ "obj-30", 0 ],
					"hidden" : 0,
					"midpoints" : [  ]
				}

			}
, 			{
				"patchline" : 				{
					"source" : [ "obj-16", 0 ],
					"destination" : [ "obj-12", 1 ],
					"hidden" : 0,
					"midpoints" : [  ]
				}

			}
, 			{
				"patchline" : 				{
					"source" : [ "obj-16", 0 ],
					"destination" : [ "obj-12", 0 ],
					"hidden" : 0,
					"midpoints" : [  ]
				}

			}
, 			{
				"patchline" : 				{
					"source" : [ "obj-25", 0 ],
					"destination" : [ "obj-20", 0 ],
					"hidden" : 0,
					"midpoints" : [  ]
				}

			}
, 			{
				"patchline" : 				{
					"source" : [ "obj-7", 0 ],
					"destination" : [ "obj-4", 0 ],
					"hidden" : 0,
					"midpoints" : [  ]
				}

			}
, 			{
				"patchline" : 				{
					"source" : [ "obj-6", 0 ],
					"destination" : [ "obj-7", 0 ],
					"hidden" : 0,
					"midpoints" : [  ]
				}

			}
, 			{
				"patchline" : 				{
					"source" : [ "obj-45", 0 ],
					"destination" : [ "obj-41", 0 ],
					"hidden" : 0,
					"midpoints" : [  ]
				}

			}
, 			{
				"patchline" : 				{
					"source" : [ "obj-44", 0 ],
					"destination" : [ "obj-2", 0 ],
					"hidden" : 0,
					"midpoints" : [  ]
				}

			}
, 			{
				"patchline" : 				{
					"source" : [ "obj-42", 0 ],
					"destination" : [ "obj-2", 1 ],
					"hidden" : 0,
					"midpoints" : [  ]
				}

			}
, 			{
				"patchline" : 				{
					"source" : [ "obj-28", 0 ],
					"destination" : [ "obj-19", 0 ],
					"hidden" : 0,
					"midpoints" : [  ]
				}

			}
, 			{
				"patchline" : 				{
					"source" : [ "obj-27", 0 ],
					"destination" : [ "obj-14", 0 ],
					"hidden" : 0,
					"midpoints" : [  ]
				}

			}
, 			{
				"patchline" : 				{
					"source" : [ "obj-26", 0 ],
					"destination" : [ "obj-13", 0 ],
					"hidden" : 0,
					"midpoints" : [  ]
				}

			}
, 			{
				"patchline" : 				{
					"source" : [ "obj-23", 0 ],
					"destination" : [ "obj-45", 0 ],
					"hidden" : 0,
					"midpoints" : [  ]
				}

			}
, 			{
				"patchline" : 				{
					"source" : [ "obj-19", 0 ],
					"destination" : [ "obj-23", 0 ],
					"hidden" : 0,
					"midpoints" : [  ]
				}

			}
, 			{
				"patchline" : 				{
					"source" : [ "obj-14", 0 ],
					"destination" : [ "obj-42", 0 ],
					"hidden" : 0,
					"midpoints" : [  ]
				}

			}
, 			{
				"patchline" : 				{
					"source" : [ "obj-13", 0 ],
					"destination" : [ "obj-44", 0 ],
					"hidden" : 0,
					"midpoints" : [  ]
				}

			}
, 			{
				"patchline" : 				{
					"source" : [ "obj-47", 0 ],
					"destination" : [ "obj-40", 0 ],
					"hidden" : 0,
					"midpoints" : [  ]
				}

			}
, 			{
				"patchline" : 				{
					"source" : [ "obj-49", 0 ],
					"destination" : [ "obj-40", 1 ],
					"hidden" : 0,
					"midpoints" : [  ]
				}

			}
, 			{
				"patchline" : 				{
					"source" : [ "obj-55", 0 ],
					"destination" : [ "obj-40", 2 ],
					"hidden" : 0,
					"midpoints" : [  ]
				}

			}
, 			{
				"patchline" : 				{
					"source" : [ "obj-40", 0 ],
					"destination" : [ "obj-63", 1 ],
					"hidden" : 0,
					"midpoints" : [  ]
				}

			}
, 			{
				"patchline" : 				{
					"source" : [ "obj-40", 0 ],
					"destination" : [ "obj-207", 0 ],
					"hidden" : 0,
					"midpoints" : [  ]
				}

			}
, 			{
				"patchline" : 				{
					"source" : [ "obj-40", 0 ],
					"destination" : [ "obj-82", 1 ],
					"hidden" : 0,
					"midpoints" : [  ]
				}

			}
, 			{
				"patchline" : 				{
					"source" : [ "obj-56", 0 ],
					"destination" : [ "obj-40", 0 ],
					"hidden" : 0,
					"midpoints" : [  ]
				}

			}
, 			{
				"patchline" : 				{
					"source" : [ "obj-69", 0 ],
					"destination" : [ "obj-40", 0 ],
					"hidden" : 0,
					"midpoints" : [  ]
				}

			}
, 			{
				"patchline" : 				{
					"source" : [ "obj-70", 0 ],
					"destination" : [ "obj-56", 0 ],
					"hidden" : 0,
					"midpoints" : [  ]
				}

			}
, 			{
				"patchline" : 				{
					"source" : [ "obj-71", 0 ],
					"destination" : [ "obj-69", 0 ],
					"hidden" : 0,
					"midpoints" : [  ]
				}

			}
, 			{
				"patchline" : 				{
					"source" : [ "obj-1", 0 ],
					"destination" : [ "obj-7", 1 ],
					"hidden" : 0,
					"midpoints" : [  ]
				}

			}
, 			{
				"patchline" : 				{
					"source" : [ "obj-1", 0 ],
					"destination" : [ "obj-16", 0 ],
					"hidden" : 0,
					"midpoints" : [  ]
				}

			}
, 			{
				"patchline" : 				{
					"source" : [ "obj-1", 0 ],
					"destination" : [ "obj-31", 0 ],
					"hidden" : 0,
					"midpoints" : [  ]
				}

			}
 ]
	}

}
